<?xml version="1.0" standalone="no"?>
<!DOCTYPE svg PUBLIC "-//W3C//DTD SVG 20010904//EN"
 "http://www.w3.org/TR/2001/REC-SVG-20010904/DTD/svg10.dtd">
<svg version="1.0" xmlns="http://www.w3.org/2000/svg"
 width="724.000000pt" height="719.000000pt" viewBox="0 0 724.000000 719.000000"
 preserveAspectRatio="xMidYMid meet">

<g transform="translate(0.000000,719.000000) scale(0.100000,-0.100000)"
fill="#000000" stroke="none">
<path d="M20 3595 l0 -3595 3605 0 3605 0 0 3595 0 3595 -3605 0 -3605 0 0
-3595z m3976 2491 c793 -169 1376 -813 1463 -1618 84 -764 -343 -1523 -1039
-1851 -267 -126 -502 -179 -795 -179 -293 0 -528 53 -795 179 -574 270 -969
830 -1039 1475 -73 667 244 1341 809 1720 196 131 427 227 654 273 169 33 167
33 406 30 186 -3 232 -7 336 -29z m-2467 -3958 c5 -13 34 -120 66 -238 32
-118 61 -219 65 -223 3 -4 38 102 77 235 l70 243 78 0 78 0 70 -243 c39 -133
73 -239 76 -236 3 3 35 112 71 242 l65 237 78 3 c72 3 78 1 73 -15 -3 -10 -40
-130 -81 -268 -42 -137 -90 -294 -106 -347 l-30 -98 -77 0 -77 0 -69 245 c-39
135 -73 240 -77 233 -5 -10 -82 -272 -131 -446 l-9 -33 -77 3 -77 3 -107 350
c-58 193 -107 356 -107 363 -1 8 20 12 74 12 69 0 76 -2 84 -22z m1226 -187
c47 -22 89 -64 104 -104 7 -17 11 -110 11 -223 l0 -194 -65 0 c-64 0 -65 1
-65 27 0 24 -1 25 -17 11 -62 -54 -177 -68 -249 -31 -59 30 -84 74 -84 146 0
55 3 62 38 97 47 48 119 70 224 70 69 0 78 2 78 19 0 29 -37 68 -75 81 -41 14
-102 6 -163 -21 -40 -17 -43 -17 -49 -1 -3 9 -12 32 -19 50 -12 30 -11 33 11
48 70 46 246 59 320 25z m597 9 c50 -14 97 -55 119 -105 16 -34 19 -67 19
-232 l0 -193 -75 0 -75 0 0 160 c0 210 -14 240 -110 240 -34 0 -48 -6 -76 -34
l-34 -34 0 -166 0 -166 -75 0 -75 0 0 260 0 260 75 0 c75 0 75 0 75 -27 l0
-26 23 21 c50 47 131 63 209 42z m620 0 c50 -14 97 -55 119 -105 16 -34 19
-67 19 -232 l0 -193 -75 0 -75 0 0 160 c0 210 -14 240 -110 240 -34 0 -48 -6
-76 -34 l-34 -34 0 -166 0 -166 -75 0 -75 0 0 260 0 260 75 0 c75 0 75 0 75
-27 l0 -26 23 21 c50 47 131 63 209 42z m552 -2 c56 -17 110 -74 124 -131 7
-26 12 -121 12 -221 l0 -176 -65 0 c-63 0 -65 1 -65 25 l0 25 -38 -25 c-72
-47 -192 -51 -250 -8 -51 38 -67 70 -67 133 0 72 21 104 90 140 39 20 67 25
147 28 96 4 98 5 98 29 0 34 -40 69 -86 77 -45 8 -128 -8 -162 -30 -13 -9 -25
-14 -26 -12 -6 7 -36 89 -36 97 0 9 77 45 115 54 41 10 169 7 209 -5z m516 1
c19 -6 83 -10 143 -9 l107 1 0 -61 0 -62 -45 4 -45 3 0 -48 c0 -110 -90 -186
-229 -192 -35 -2 -68 -8 -73 -13 -20 -20 0 -41 44 -46 179 -21 214 -28 251
-48 48 -26 67 -58 67 -109 0 -70 -67 -136 -168 -165 -82 -24 -241 -16 -305 15
-111 54 -114 162 -5 211 l38 17 -25 23 c-35 33 -34 85 2 123 l28 28 -22 17
c-59 47 -80 139 -47 209 41 85 179 135 284 102z m637 -4 c65 -19 139 -85 169
-150 62 -133 2 -297 -133 -360 -149 -71 -336 -4 -398 142 -22 50 -22 157 -1
206 58 138 212 207 363 162z"/>
<path d="M3120 5286 c0 -3 7 -37 15 -76 16 -74 14 -90 -10 -90 -19 0 -37 -34
-29 -54 7 -19 45 -21 62 -4 14 14 15 77 3 131 l-9 37 43 0 c35 0 45 -4 50 -20
5 -15 0 -26 -19 -41 -49 -38 -20 -87 32 -53 21 14 23 21 18 54 -3 21 -12 56
-18 77 l-13 38 -63 3 c-34 2 -62 1 -62 -2z m88 -33 c-10 -2 -28 -2 -40 0 -13
2 -5 4 17 4 22 1 32 -1 23 -4z"/>
<path d="M4052 5128 c-7 -7 -12 -17 -12 -24 0 -6 -8 -11 -17 -10 -30 2 -30
-68 0 -113 24 -36 24 -37 13 -161 l-11 -125 -70 5 c-38 3 -107 5 -153 5 -98 0
-103 9 -46 83 34 45 36 50 32 114 -2 45 -9 73 -21 86 -9 10 -17 26 -17 36 0
16 -7 17 -67 11 -126 -12 -151 -34 -155 -139 -2 -63 -1 -66 40 -115 58 -69 56
-81 -13 -81 -52 0 -63 -5 -147 -61 -105 -71 -94 -74 -154 45 -34 65 -35 70
-23 115 16 64 3 103 -40 115 -28 8 -35 6 -62 -20 -42 -40 -45 -65 -15 -111 15
-22 44 -97 65 -166 38 -128 60 -167 91 -167 10 0 56 18 103 40 122 58 120 59
111 -52 -4 -63 -14 -110 -30 -147 -13 -29 -24 -70 -24 -90 0 -20 -14 -70 -31
-111 -39 -97 -86 -264 -95 -338 -8 -77 1 -94 126 -228 l100 -107 0 -53 c0 -37
4 -53 15 -58 14 -5 14 -9 -1 -37 -9 -18 -36 -54 -61 -80 -26 -27 -42 -53 -38
-59 9 -14 66 -5 107 16 41 21 85 18 93 -6 15 -49 67 3 85 86 6 27 17 56 25 64
7 8 18 27 24 42 10 26 7 30 -44 68 -87 65 -89 69 -81 225 4 78 17 182 32 252
43 200 55 274 63 383 6 73 17 128 36 180 50 136 36 125 181 139 164 15 178 21
182 86 2 28 -2 105 -8 171 -11 114 -10 124 8 165 23 50 19 64 -30 101 -49 36
-54 38 -66 26z m15 -40 c-3 -8 -6 -5 -6 6 -1 11 2 17 5 13 3 -3 4 -12 1 -19z
m56 -23 c-3 -9 -8 -14 -10 -11 -3 3 -2 9 2 15 9 16 15 13 8 -4z m-70 -42 c24
-27 39 -30 30 -7 -5 14 -3 15 17 4 19 -10 21 -17 16 -48 -3 -21 -6 -47 -6 -59
0 -16 -6 -23 -20 -23 -15 0 -20 7 -20 28 0 15 -11 44 -25 64 -14 20 -25 50
-24 65 0 16 3 21 6 13 3 -8 15 -25 26 -37z m-308 -123 c12 -90 -24 -150 -92
-150 -50 0 -83 45 -83 115 0 33 2 35 58 51 31 9 66 20 77 24 32 13 33 13 40
-40z m-567 -25 c-3 -3 -9 2 -12 12 -6 14 -5 15 5 6 7 -7 10 -15 7 -18z m32
-69 c-13 -54 -12 -55 24 -133 35 -72 36 -78 20 -90 -32 -23 -41 -14 -63 70
-13 45 -29 92 -37 105 -14 22 -13 26 23 66 21 23 40 41 42 39 2 -2 -2 -27 -9
-57z m904 38 c3 -9 9 -60 12 -113 5 -72 4 -100 -5 -106 -7 -4 -39 -9 -72 -12
l-59 -6 0 32 c0 28 3 31 29 31 l29 0 7 95 c7 90 9 95 30 95 13 0 26 -7 29 -16z
m-413 -147 c9 -32 -3 -40 -48 -35 -22 2 -27 8 -25 23 4 24 31 47 51 43 8 -2
18 -16 22 -31z m226 -17 l44 0 -3 -37 -3 -38 -80 -12 c-44 -6 -81 -12 -82 -12
-2 -1 -3 -9 -3 -18 0 -10 -16 -63 -35 -118 -28 -80 -35 -115 -35 -177 0 -42
-3 -79 -8 -82 -8 -5 -261 20 -268 27 -3 3 6 31 18 63 20 48 36 68 98 119 85
70 151 160 177 241 l17 56 60 -6 c32 -3 79 -6 103 -6z m-367 -17 c-1 -22 -21
-155 -31 -207 -15 -73 -27 -53 -28 47 -1 38 -5 67 -11 67 -6 0 -55 -22 -110
-50 -55 -27 -104 -50 -110 -50 -10 0 -40 51 -40 68 0 5 12 14 27 21 23 11 29
10 40 -5 12 -17 14 -16 35 3 56 51 163 113 195 113 18 0 33 -3 33 -7z m108
-23 c21 0 44 6 51 13 11 10 12 7 6 -13 -20 -70 -118 -205 -167 -231 -18 -10
-20 -9 -15 6 4 9 15 70 24 136 l16 119 23 -15 c13 -8 41 -15 62 -15z m-214
-509 c-9 -23 -18 -40 -20 -38 -2 2 4 22 13 45 9 23 18 40 20 38 2 -2 -4 -22
-13 -45z m253 -33 c-3 -8 -6 -5 -6 6 -1 11 2 17 5 13 3 -3 4 -12 1 -19z m-288
-57 c-6 -18 -13 -30 -15 -28 -2 2 1 18 7 36 6 18 13 30 15 28 2 -2 -1 -18 -7
-36z m181 26 c0 -2 -10 -12 -22 -23 l-23 -19 19 23 c18 21 26 27 26 19z m97
-29 c-3 -8 -6 -5 -6 6 -1 11 2 17 5 13 3 -3 4 -12 1 -19z m-154 -53 c-9 -19
-18 -33 -21 -31 -4 5 26 66 33 66 3 0 -3 -16 -12 -35z m144 3 c-3 -8 -6 -5 -6
6 -1 11 2 17 5 13 3 -3 4 -12 1 -19z m-296 -19 c-5 -13 -10 -19 -10 -12 -1 15
10 45 15 40 3 -2 0 -15 -5 -28z m286 -21 c-3 -8 -6 -5 -6 6 -1 11 2 17 5 13 3
-3 4 -12 1 -19z m-322 -109 c-8 -35 -15 -87 -15 -116 0 -57 1 -58 184 -253
l71 -75 -64 60 c-34 33 -94 95 -132 138 -66 74 -69 79 -69 128 0 50 28 194 36
186 3 -2 -2 -33 -11 -68z m173 -134 l-3 -65 -33 48 -33 49 22 54 c44 111 43
111 47 42 2 -34 2 -92 0 -128z m39 -57 c-2 -13 -4 -5 -4 17 -1 22 1 32 4 23 2
-10 2 -28 0 -40z m179 -293 c3 -7 -1 -24 -9 -37 -9 -13 -22 -50 -31 -82 -17
-69 -39 -99 -29 -43 3 20 0 57 -6 81 -10 40 -9 49 10 80 18 31 24 34 40 25 11
-6 22 -16 25 -24z m-84 3 c-7 -7 -12 -8 -12 -2 0 6 3 14 7 17 3 4 9 5 12 2 2
-3 -1 -11 -7 -17z m-95 -20 c-3 -8 -6 -5 -6 6 -1 11 2 17 5 13 3 -3 4 -12 1
-19z m53 -57 c0 -13 -105 -117 -126 -125 -15 -6 5 20 77 101 14 16 16 23 7 26
-7 3 -1 6 15 6 15 1 27 -3 27 -8z"/>
<path d="M3595 4890 c-3 -5 1 -10 9 -10 8 0 18 5 21 10 3 6 -1 10 -9 10 -8 0
-18 -4 -21 -10z"/>
<path d="M3680 4890 c0 -5 9 -10 21 -10 11 0 17 5 14 10 -3 6 -13 10 -21 10
-8 0 -14 -4 -14 -10z"/>
<path d="M3600 4860 c0 -5 5 -10 10 -10 6 0 10 5 10 10 0 6 -4 10 -10 10 -5 0
-10 -4 -10 -10z"/>
<path d="M3685 4860 c-3 -5 1 -10 10 -10 9 0 13 5 10 10 -3 6 -8 10 -10 10 -2
0 -7 -4 -10 -10z"/>
<path d="M3648 4783 c7 -3 16 -2 19 1 4 3 -2 6 -13 5 -11 0 -14 -3 -6 -6z"/>
<path d="M3622 4364 c-32 -32 -37 -40 -17 -26 34 22 83 72 71 72 -4 0 -28 -21
-54 -46z"/>
<path d="M2583 1643 c-32 -6 -65 -51 -57 -77 9 -32 34 -46 81 -46 76 0 123 40
123 105 0 24 -2 25 -62 24 -35 -1 -73 -4 -85 -6z"/>
<path d="M4350 1632 c-27 -13 -36 -24 -38 -49 -4 -42 26 -63 91 -63 63 0 107
39 107 94 l0 36 -62 0 c-40 0 -76 -6 -98 -18z"/>
<path d="M4896 1829 c-42 -33 -35 -99 15 -124 52 -27 137 -10 153 30 25 66
-16 115 -94 115 -33 0 -55 -6 -74 -21z"/>
<path d="M4868 1395 c-21 -12 -28 -23 -28 -45 0 -22 7 -33 28 -43 93 -48 263
-14 250 50 -5 27 -45 41 -138 48 -67 4 -91 2 -112 -10z"/>
<path d="M5524 1816 c-72 -32 -101 -120 -66 -199 25 -55 62 -77 132 -77 43 0
55 5 87 34 34 31 37 39 40 97 5 76 -15 116 -70 142 -42 20 -81 21 -123 3z"/>
</g>
</svg>
